<svg width="31" height="31" viewBox="0 0 31 31" fill="none" xmlns="http://www.w3.org/2000/svg">
<path d="M22.875 10.1667C22.875 8.1444 22.0717 6.20495 20.6417 4.77498C19.2117 3.34502 17.2723 2.54167 15.25 2.54167C13.2277 2.54167 11.2883 3.34502 9.85831 4.77498C8.42835 6.20495 7.625 8.1444 7.625 10.1667C7.625 19.0625 3.8125 21.6042 3.8125 21.6042H26.6875C26.6875 21.6042 22.875 19.0625 22.875 10.1667Z" stroke="#14FF8E" stroke-width="2" stroke-linecap="round" stroke-linejoin="round"/>
<path d="M17.4479 26.6875C17.2244 27.0727 16.9037 27.3924 16.5179 27.6146C16.1321 27.8369 15.6946 27.9538 15.2493 27.9538C14.804 27.9538 14.3666 27.8369 13.9807 27.6146C13.5949 27.3924 13.2742 27.0727 13.0508 26.6875" stroke="#14FF8E" stroke-width="2" stroke-linecap="round" stroke-linejoin="round"/>
</svg>
