<svg width="150" height="31" viewBox="0 0 150 31" fill="none" xmlns="http://www.w3.org/2000/svg">
<path d="M48.32 23.968H43.84L37.76 10.688H36.48L37.44 12.288V23.968H34.88V8.288H39.392L45.44 21.568H46.72L45.76 19.968V8.288H48.32V23.968ZM64.6275 24H55.6675C55.0488 24 54.5155 23.7867 54.0675 23.36C53.6408 22.912 53.4275 22.3787 53.4275 21.76V15.04C53.4275 14.4213 53.6408 13.8987 54.0675 13.472C54.5155 13.024 55.0488 12.8 55.6675 12.8H62.3875C63.0062 12.8 63.5288 13.024 63.9555 13.472C64.4035 13.8987 64.6275 14.4213 64.6275 15.04V17.28L62.3875 19.52H55.9875L57.9075 17.6H62.3875V14.72H55.6675V22.08H64.6275V24ZM84.1463 12.8L81.0743 24H77.5543L75.8263 16.352H75.5063L73.7143 24H70.1943L67.1863 12.8H69.5863L71.6663 22.144H72.3063L74.6103 12.8H76.8503L79.0263 22.144H79.6663L81.7463 12.8H84.1463ZM108.164 17.28C108.164 17.8773 107.94 18.4 107.492 18.848C107.044 19.296 106.521 19.52 105.924 19.52H97.2838V24H94.7238V12.8L96.9638 10.56H94.7238V8.32H105.924C106.521 8.32 107.044 8.544 107.492 8.992C107.94 9.44 108.164 9.96267 108.164 10.56V17.28ZM105.604 17.28V10.56H97.2838V19.2L99.2038 17.28H105.604ZM124.003 21.76C124.003 22.3787 123.779 22.912 123.331 23.36C122.904 23.7867 122.381 24 121.763 24H115.043C114.424 24 113.891 23.7867 113.443 23.36C113.016 22.912 112.803 22.3787 112.803 21.76V15.04C112.803 14.4213 113.016 13.8987 113.443 13.472C113.891 13.024 114.424 12.8 115.043 12.8H121.763C122.381 12.8 122.904 13.024 123.331 13.472C123.779 13.8987 124.003 14.4213 124.003 15.04V21.76ZM121.763 22.08V14.72H115.043V22.08H121.763ZM137.61 12.8L135.658 14.72H130.25V17.28H134.73C135.349 17.28 135.871 17.504 136.298 17.952C136.746 18.3787 136.97 18.9013 136.97 19.52V21.76C136.97 22.3787 136.746 22.912 136.298 23.36C135.871 23.7867 135.349 24 134.73 24H128.01V22.08H134.73V19.2H130.25C129.631 19.2 129.098 18.9867 128.65 18.56C128.223 18.112 128.01 17.5787 128.01 16.96V15.04C128.01 14.4213 128.223 13.8987 128.65 13.472C129.098 13.024 129.631 12.8 130.25 12.8H137.61ZM148.319 24H143.839C143.22 24 142.687 23.7867 142.239 23.36C141.812 22.912 141.599 22.3787 141.599 21.76V14.72H138.399L140.319 12.8H141.599V10.56L143.839 8.32V12.8H148.319V14.72H143.839V22.08H148.319V24Z" fill="#14FF8E"/>
<path d="M11.5 6C11.8812 6 12.2469 6.15145 12.5165 6.42103C12.7861 6.69062 12.9375 7.05625 12.9375 7.4375V16.0625H21.5625C21.9437 16.0625 22.3094 16.214 22.579 16.4835C22.8486 16.7531 23 17.1188 23 17.5C23 17.8812 22.8486 18.2469 22.579 18.5165C22.3094 18.7861 21.9437 18.9375 21.5625 18.9375H12.9375V27.5625C12.9375 27.9437 12.7861 28.3094 12.5165 28.579C12.2469 28.8486 11.8812 29 11.5 29C11.1188 29 10.7531 28.8486 10.4835 28.579C10.214 28.3094 10.0625 27.9437 10.0625 27.5625V18.9375H1.4375C1.05625 18.9375 0.690618 18.7861 0.421034 18.5165C0.151451 18.2469 0 17.8812 0 17.5C0 17.1188 0.151451 16.7531 0.421034 16.4835C0.690618 16.214 1.05625 16.0625 1.4375 16.0625H10.0625V7.4375C10.0625 7.05625 10.214 6.69062 10.4835 6.42103C10.7531 6.15145 11.1188 6 11.5 6Z" fill="url(#paint0_linear_129_2113)"/>
<defs>
<linearGradient id="paint0_linear_129_2113" x1="11.5" y1="6" x2="11.5" y2="29" gradientUnits="userSpaceOnUse">
<stop stop-color="#14FF8E"/>
<stop offset="1" stop-color="#4559BB"/>
</linearGradient>
</defs>
</svg>
